<svg width="17" height="22" viewBox="0 0 17 22" fill="none" xmlns="http://www.w3.org/2000/svg">
    <path
        d="M1.20841 0.583336H15.7917C16.068 0.583336 16.333 0.693083 16.5283 0.888433C16.7237 1.08378 16.8334 1.34874 16.8334 1.625V20.375C16.8334 20.6513 16.7237 20.9162 16.5283 21.1116C16.333 21.3069 16.068 21.4167 15.7917 21.4167H1.20841C0.932148 21.4167 0.667196 21.3069 0.471845 21.1116C0.276495 20.9162 0.166748 20.6513 0.166748 20.375V1.625C0.166748 1.34874 0.276495 1.08378 0.471845 0.888433C0.667196 0.693083 0.932148 0.583336 1.20841 0.583336ZM5.37508 9.95834V6.83334L0.166748 11L5.37508 15.1667V12.0417H11.6251V9.95834H5.37508Z"
        fill="#4461F2" />
</svg>